<svg xmlns="http://www.w3.org/2000/svg" viewBox="0 0 232.036 83.892">
  <g id="Group_47" data-name="Group 47" transform="translate(-349.427 -590.873)">
    <g id="Group_32" data-name="Group 32" transform="translate(349.427 590.873)">
      <path id="Path_95" data-name="Path 95" d="M568.2,673.635l-186.828,3.324a15.733,15.733,0,0,1-16.012-15.452l-3.112-39.946A14.008,14.008,0,0,1,376,607.075l190.282-3.386a14.008,14.008,0,0,1,14.249,13.527l3.126,40.4A15.736,15.736,0,0,1,568.2,673.635Z" transform="translate(-356.932 -598.378)" fill="#bdefec"/>
      <path id="Path_96" data-name="Path 96" d="M567.345,598.919a13.984,13.984,0,0,1,5.681,10.793l3.126,40.4A15.736,15.736,0,0,1,560.7,666.13l-186.828,3.324A15.731,15.731,0,0,1,357.857,654l-3.112-39.946a14.008,14.008,0,0,1,13.75-14.485l190.282-3.386a13.953,13.953,0,0,1,8.567,2.734m3.155-4.269h0a19.145,19.145,0,0,0-11.817-3.773L368.4,594.263a19.317,19.317,0,0,0-18.962,19.974l3.111,39.907a21.039,21.039,0,0,0,21.415,20.618l186.827-3.324A21.07,21.07,0,0,0,581.46,650.02v-.043l0-.043-3.126-40.4A19.222,19.222,0,0,0,570.5,594.65Z" transform="translate(-349.427 -590.873)"/>
    </g>
    <g id="Group_34" data-name="Group 34" transform="translate(362.705 605.946)">
      <g id="Group_33" data-name="Group 33" transform="translate(0 0)">
        <path id="Path_97" data-name="Path 97" d="M579.41,683.207,395.6,681.727a8.57,8.57,0,0,1-8.514-8.661l.655-31.693a8.6,8.6,0,0,1,8.661-8.514l183.83,1.491a8.592,8.592,0,0,1,8.514,8.661l-.669,31.682A8.571,8.571,0,0,1,579.41,683.207Z" transform="translate(-384.758 -630.536)" fill="#ffebbd"/>
        <path id="Path_98" data-name="Path 98" d="M385.907,678.645a11,11,0,0,1-1.32-1.149,10.8,10.8,0,0,1-3.111-7.74l.654-31.685a10.939,10.939,0,0,1,11-10.818l183.827,1.491a10.93,10.93,0,0,1,10.818,11l-.669,31.682a10.892,10.892,0,0,1-11,10.818l-183.816-1.48A10.841,10.841,0,0,1,385.907,678.645Zm194.676-44.032a6.239,6.239,0,0,0-3.661-1.224L393.095,631.9a6.285,6.285,0,0,0-6.32,6.218l-.654,31.684a6.247,6.247,0,0,0,6.21,6.321l183.822,1.48a6.247,6.247,0,0,0,6.312-6.21l.669-31.681A6.266,6.266,0,0,0,580.584,634.613Z" transform="translate(-381.475 -627.253)" fill="#e26d6d"/>
      </g>
    </g>
  </g>
</svg>
